<?xml version="1.0" encoding="utf-8"?>
<!-- Generator: Adobe Illustrator 27.5.0, SVG Export Plug-In . SVG Version: 6.00 Build 0)  -->
<svg version="1.1" id="Call_center_character" xmlns="http://www.w3.org/2000/svg" xmlns:xlink="http://www.w3.org/1999/xlink"
	 x="0px" y="0px" viewBox="0 0 4000 2000" style="enable-background:new 0 0 4000 2000;" xml:space="preserve">
<g id="Call_center_character_1_">
	<g id="backcolor">
		<path style="fill:#D3E0FB;" d="M3011.531,1626.375c117.537-61.114,218.746-141.379,282.217-245.798
			c110.666-182.065,58.376-446.583-155.459-536.265c-264.095-110.759-518.368,131.12-793.528,103.247
			c-137.048-13.882-250.483-161.681-287.23-258.381c-26.808-70.547-64.147-220.196-147.555-296.781
			c-258.82-237.647-714.41-134.94-905.326,5.963C865.413,501.124,753.135,708.45,760.049,877.706
			c9.714,237.805,98.341,596.716,418.858,748.67H3011.531z"/>
	</g>
	<g id="symbols">
		<g>
			<path style="fill:#264997;" d="M2870.576,546.982c-16.964,0-30.765-13.801-30.765-30.765c0-16.963,13.801-30.764,30.765-30.764
				s30.765,13.801,30.765,30.764C2901.341,533.18,2887.54,546.982,2870.576,546.982z M2870.576,489.572
				c-14.692,0-26.645,11.953-26.645,26.644c0,14.692,11.953,26.645,26.645,26.645s26.645-11.953,26.645-26.645
				C2897.221,501.525,2885.269,489.572,2870.576,489.572z"/>
		</g>
		<g id="message_4_">
			<g>
				<path style="fill:#264997;" d="M1003.117,883.108h-83.588c-11.225,0-20.357-9.133-20.357-20.357v-50.772
					c0-11.225,9.132-20.357,20.357-20.357h83.588c11.225,0,20.357,9.132,20.357,20.357v50.772
					C1023.474,873.976,1014.342,883.108,1003.117,883.108z M919.528,793.294c-10.302,0-18.684,8.382-18.684,18.684v50.772
					c0,10.303,8.382,18.684,18.684,18.684h83.588c10.302,0,18.684-8.382,18.684-18.684v-50.772c0-10.303-8.382-18.684-18.684-18.684
					H919.528z"/>
			</g>
			<g>
				<polygon style="fill:#264997;" points="961.74,836.14 901.135,804.86 901.902,803.373 961.768,834.271 1020.981,805.952 
					1021.703,807.461 				"/>
			</g>
		</g>
		<g id="message_1_">
			<g>
				<path style="fill:#264997;" d="M3089.851,1080.037h-60.355c-8.105,0-14.699-6.594-14.699-14.699v-36.66
					c0-8.105,6.594-14.699,14.699-14.699h60.355c8.105,0,14.699,6.594,14.699,14.699v36.66
					C3104.551,1073.443,3097.957,1080.037,3089.851,1080.037z M3029.496,1015.187c-7.439,0-13.491,6.052-13.491,13.491v36.66
					c0,7.439,6.052,13.491,13.491,13.491h60.355c7.439,0,13.491-6.052,13.491-13.491v-36.66c0-7.439-6.052-13.491-13.491-13.491
					H3029.496z"/>
			</g>
			<g>
				<polygon style="fill:#264997;" points="3059.975,1046.123 3016.215,1023.537 3016.769,1022.464 3059.996,1044.774 
					3102.75,1024.326 3103.272,1025.416 				"/>
			</g>
		</g>
		<g>
			<path style="fill:#264997;" d="M515.781,937.797c-16.964,0-30.765-13.801-30.765-30.765s13.801-30.764,30.765-30.764
				c16.964,0,30.765,13.801,30.765,30.764S532.745,937.797,515.781,937.797z M515.781,880.388
				c-14.692,0-26.645,11.953-26.645,26.644c0,14.692,11.953,26.645,26.645,26.645c14.692,0,26.645-11.953,26.645-26.645
				C542.427,892.34,530.474,880.388,515.781,880.388z"/>
		</g>
		<g>
			
				<ellipse transform="matrix(0.2298 -0.9732 0.9732 0.2298 378.1276 1700.0164)" style="fill:#264997;" cx="1263.096" cy="611.116" rx="12.111" ry="12.111"/>
		</g>
		<g>
			
				<ellipse transform="matrix(0.2298 -0.9732 0.9732 0.2298 1093.9314 2628.6943)" style="fill:#264997;" cx="2207.713" cy="623.227" rx="12.111" ry="12.111"/>
		</g>
		<g>
			<g>
				<path style="fill:#264997;" d="M1872.438,746.644h-28.35c-1.559,0-2.835-1.276-2.835-2.835l0,0c0-1.559,1.276-2.835,2.835-2.835
					h28.35c1.559,0,2.835,1.276,2.835,2.835l0,0C1875.273,745.368,1873.998,746.644,1872.438,746.644z"/>
			</g>
			<g>
				<path style="fill:#264997;" d="M1855.428,757.984v-28.35c0-1.559,1.276-2.835,2.835-2.835l0,0c1.559,0,2.835,1.276,2.835,2.835
					v28.35c0,1.559-1.276,2.835-2.835,2.835l0,0C1856.704,760.819,1855.428,759.543,1855.428,757.984z"/>
			</g>
		</g>
		<g>
			<g>
				<path style="fill:#264997;" d="M2459.759,902.953h-28.35c-1.559,0-2.835-1.276-2.835-2.835l0,0c0-1.559,1.276-2.835,2.835-2.835
					h28.35c1.559,0,2.835,1.276,2.835,2.835l0,0C2462.594,901.678,2461.318,902.953,2459.759,902.953z"/>
			</g>
			<g>
				<path style="fill:#264997;" d="M2442.748,914.294v-28.35c0-1.559,1.276-2.835,2.835-2.835l0,0c1.559,0,2.835,1.276,2.835,2.835
					v28.35c0,1.559-1.276,2.835-2.835,2.835l0,0C2444.024,917.128,2442.748,915.853,2442.748,914.294z"/>
			</g>
		</g>
		<g>
			<g>
				<path style="fill:#264997;" d="M3236.176,644.827h-28.35c-1.559,0-2.835-1.276-2.835-2.835l0,0c0-1.559,1.276-2.835,2.835-2.835
					h28.35c1.559,0,2.835,1.276,2.835,2.835l0,0C3239.011,643.551,3237.736,644.827,3236.176,644.827z"/>
			</g>
			<g>
				<path style="fill:#264997;" d="M3219.166,656.167v-28.35c0-1.559,1.276-2.835,2.835-2.835l0,0c1.559,0,2.835,1.276,2.835,2.835
					v28.35c0,1.559-1.276,2.835-2.835,2.835l0,0C3220.442,659.002,3219.166,657.726,3219.166,656.167z"/>
			</g>
		</g>
		<g>
			<path style="fill:#264997;" d="M2443.407,1163.268h-152.361c-1.197,0-2.177-0.979-2.177-2.177l0,0
				c0-1.197,0.979-2.177,2.177-2.177h152.361c1.197,0,2.177,0.979,2.177,2.177l0,0
				C2445.583,1162.288,2444.604,1163.268,2443.407,1163.268z"/>
		</g>
		<g>
			<path style="fill:#264997;" d="M2420.942,1137.729h-152.361c-1.197,0-2.177-0.979-2.177-2.177l0,0
				c0-1.197,0.979-2.177,2.177-2.177h152.361c1.197,0,2.177,0.979,2.177,2.177l0,0
				C2423.119,1136.75,2422.139,1137.729,2420.942,1137.729z"/>
		</g>
		<g>
			<path style="fill:#264997;" d="M738.236,505.539H598.692c-1.197,0-2.177-0.979-2.177-2.177l0,0c0-1.197,0.979-2.177,2.177-2.177
				h139.544c1.197,0,2.177,0.979,2.177,2.177l0,0C740.413,504.56,739.433,505.539,738.236,505.539z"/>
		</g>
		<g>
			<path style="fill:#264997;" d="M781.891,523.449H629.53c-1.197,0-2.177-0.979-2.177-2.177l0,0c0-1.197,0.979-2.177,2.177-2.177
				h152.361c1.197,0,2.177,0.979,2.177,2.177l0,0C784.068,522.469,783.088,523.449,781.891,523.449z"/>
		</g>
	</g>
	<g id="tree">
		<g>
			<path style="fill:#93B6ED;" d="M1919.886,1245.817c4.262,7.948,4.048,17.404-0.118,25.23
				c-7.177,13.485-22.707,23.635-36.051,34.502c-42.899,34.938-65.784,81.528-63.126,128.515c1.41,24.919,9.706,49.817,8.826,74.668
				c-1.458,41.185-29.539,80.667-75.189,105.718c-42.178,23.146-98.716,33.622-153.73,28.833
				c-12.468-30.073-26.812-67.173,0.924-91.566c9.128-8.028,21.962-13.659,31.672-21.347c44.843-35.51,6.639-93.506,21.312-140.205
				c10.906-34.709,50.275-60.361,87.819-83.892c31.33-19.636,62.66-39.273,93.99-58.909c18.497-11.593,44.243-23.858,67.211-15.239
				C1911.384,1235.112,1916.804,1240.07,1919.886,1245.817z"/>
			<path style="fill:#264997;" d="M1788.484,1416.072c-14.005,71.584-15.562,149.393-77.809,197.635
				c-21.074,16.21-44.261,25.655-68.676,30.335c41.015-2.035,80.648-12.261,112.23-29.592
				c45.651-25.051,73.731-64.532,75.189-105.718c0.88-24.851-7.417-49.749-8.826-74.668c-2.658-46.987,20.227-93.577,63.126-128.515
				c13.344-10.868,28.874-21.017,36.051-34.502c0.723-1.359,1.319-2.768,1.801-4.209
				C1854.801,1288.738,1802.605,1333.363,1788.484,1416.072z"/>
			<path style="fill:#93B6ED;" d="M1165.777,1302.378c29.712-34.924,60.442-68.981,92.14-102.113
				c8.975-9.381,18.283-18.875,29.967-24.534c28.959-14.024,64.298-0.62,89.092,19.887c24.795,20.507,43.555,47.645,68.888,67.484
				c22.727,17.798,50.857,29.902,67.505,53.484c17.87,25.313,18.759,58.441,19.38,89.421c1.646,82.044,6.041,164.032,13.177,245.782
				c-19.956-38.809-32.701-81.312-37.387-124.699c-3.189-29.527-2.906-60.345-15.489-87.247
				c-15.711-33.589-48.62-55.214-79.97-75.02c-30.434-19.227-65.296-39.219-100.329-30.934
				c-22.957,5.429-41.231,22.124-60.981,35.025c-46.998,30.697-107.019,40.677-161.422,26.841
				C1114.694,1363.995,1139.847,1332.856,1165.777,1302.378z"/>
			<path style="fill:#264997;" d="M1525.489,1593.476c-12.449-59.135,1.556-113.601-9.337-172.736
				c-7.781-34.236-44.26-56.006-74.724-86.47c-30.464-30.464-81.925-80.72-166.484-55.142
				c-42.541,12.868-116.909,84.115-182.279,113.644c-0.767,0.998-1.55,1.983-2.316,2.981
				c54.403,13.836,114.424,3.855,161.422-26.841c19.751-12.9,38.024-29.595,60.981-35.024
				c35.033-8.285,69.895,11.707,100.329,30.934c31.35,19.806,64.259,41.431,79.97,75.02c12.583,26.902,12.299,57.72,15.488,87.247
				c3.163,29.285,10.012,58.162,20.257,85.778C1529.003,1606.281,1527.247,1599.63,1525.489,1593.476z"/>
			<path style="fill:#93B6ED;" d="M1670.649,960.865c0.135-0.29,0.271-0.579,0.408-0.868
				c-51.256,27.041-75.054,86.858-89.419,143.001c-10.459,40.877-18.116,82.47-22.9,124.391
				c-4.37,38.298-6.304,77.414,1.765,115.106c6.814,31.826,20.733,62.758,19.526,95.283c-1.565,42.181-28.341,79.9-32.359,121.918
				c-3.183,33.278,9.202,67.626,32.468,91.554c14.758-8.178,29.517-16.355,44.276-24.532c6.63-3.673,13.797-7.97,16.2-15.157
				c2.913-8.711-2.281-17.776-6.116-26.122c-14.735-32.066-10.411-69.58-1.629-103.76c13.563-52.789,36.845-102.516,54.321-154.142
				c17.476-51.626,29.178-107.099,18.507-160.549c-7.024-35.184-23.386-67.731-34.24-101.928
				C1660.7,1031.166,1655.708,993.07,1670.649,960.865z"/>
			<path style="fill:#3661BF;" d="M1612.651,1641.267c16.348-7.323,31.643-16.942,44.859-29.073
				c12.347-11.333,22.689-24.76,30.901-39.352c8.613-15.307,14.962-31.832,19.792-48.692c4.799-16.756,7.821-33.952,11.987-50.868
				c7.141-28.994,16.302-57.639,29.905-84.298c13.686-26.822,31.77-51.013,53.19-72.148c26.777-26.421,57.909-48.07,90.186-67.201
				c4.767-2.825,9.567-5.594,14.392-8.318c2.616-1.477,0.266-5.511-2.356-4.031c-33.979,19.182-66.977,40.753-95.877,67.104
				c-22.686,20.684-42.459,44.494-57.635,71.226c-14.632,25.771-24.868,53.757-32.643,82.286
				c-4.347,15.951-7.638,32.108-11.335,48.212c-4.028,17.543-9.339,34.895-16.924,51.247c-7.056,15.211-16.066,29.541-27.363,41.967
				c-11.696,12.865-25.601,23.469-40.88,31.734c-4.103,2.219-8.296,4.266-12.552,6.173
				C1607.558,1638.462,1609.93,1642.486,1612.651,1641.267L1612.651,1641.267z"/>
			<path style="fill:#3661BF;" d="M1580.018,1639.75c-1.943-42.237,7.21-83.719,18.427-124.173
				c11.246-40.561,24.612-80.69,31.638-122.287c7.495-44.375,6.716-89.503,3.85-134.26c-2.909-45.433-7.843-90.783-8.088-136.351
				c-0.234-43.353,3.733-87.473,19.091-128.337c1.906-5.073,4-10.067,6.26-14.992c1.244-2.712-2.779-5.087-4.031-2.356
				c-17.897,39.015-24.448,81.96-25.739,124.578c-1.392,45.975,3.08,91.838,6.462,137.632c3.349,45.343,5.69,91.089,0.109,136.358
				c-5.261,42.679-18.352,83.821-30.164,125.008c-11.52,40.169-22.125,81.212-22.743,123.249
				c-0.078,5.313,0.017,10.624,0.261,15.932C1575.487,1642.741,1580.156,1642.758,1580.018,1639.75L1580.018,1639.75z"/>
			<path style="fill:#3661BF;" d="M1123.739,1362.994c18.171-16.435,36.342-32.871,54.513-49.306
				c8.986-8.127,17.971-16.255,26.957-24.382c8.431-7.625,16.765-15.382,25.468-22.699c8.404-7.065,17.289-13.648,27.046-18.736
				c8.792-4.585,18.257-7.816,27.978-9.752c19.228-3.829,39.474-2.419,57.983,4.039c9.495,3.313,18.255,8.101,26.523,13.794
				c8.769,6.037,17.055,12.78,26.16,18.324c8.71,5.304,18.082,8.797,27.863,11.561c9.551,2.699,19.377,4.891,28.448,9.019
				c9.279,4.223,16.864,10.62,23.107,18.643c6.333,8.139,11.485,17.297,16.13,26.481c9.283,18.358,15.903,37.955,20.612,57.955
				c9.606,40.797,11.41,82.955,12.265,124.703c0.104,5.068-0.729,52.319-0.646,57.387c0.049,3.001,4.718,3.01,4.669,0
				c-0.699-42.692-0.763-127.892-8.917-169.937c-3.975-20.495-9.757-40.641-18.039-59.825c-4.151-9.614-8.939-18.959-14.406-27.892
				c-5.345-8.734-11.502-17.264-19.562-23.7c-16.264-12.988-37.551-14.438-56.317-21.898c-19.966-7.936-34.92-24.397-54.067-33.846
				c-17.937-8.853-38.262-12.686-58.2-11.296c-20.624,1.437-40.118,8.459-57.09,20.219c-9.135,6.33-17.549,13.625-25.804,21.044
				c-9.053,8.135-18.057,16.324-27.084,24.488c-18.371,16.616-36.741,33.232-55.112,49.848c-4.593,4.154-9.185,8.308-13.778,12.462
				C1118.204,1361.713,1121.514,1365.006,1123.739,1362.994L1123.739,1362.994z"/>
		</g>
	</g>
	<g id="womens_working">
		<g>
			<defs>
				<rect id="SVGID_1_" x="482.47" y="815.723" width="3035.059" height="786.816"/>
			</defs>
			<clipPath id="SVGID_00000054979634658738724380000014985246864605674624_">
				<use xlink:href="#SVGID_1_"  style="overflow:visible;"/>
			</clipPath>
			<g style="clip-path:url(#SVGID_00000054979634658738724380000014985246864605674624_);">
				<g>
					<g>
						<path style="fill:#FAA189;" d="M808.552,1397.828c9.925,28.453,54.265,107.189,65.442,117.084
							c3.698,3.274,10.515,5.268,21.275,6.765c14.375,2,82.389,4.35,133.791,12.843l7.557-22.741
							c-45.089-16.527-75.455-28.698-120.545-45.221c-20.002-44.539-29.165-73.928-49.323-132.75
							C866.749,1333.808,791.124,1347.865,808.552,1397.828z"/>
						<g>
							<path style="fill:#FAA189;" d="M1037.366,1516.942c-1.983-1.886-23.002-2.286-25.802,1.145c0,0,3.03,13.598,3.693,21.143
								c0.663,7.545,19.213,16.963,24.73,20.07c4.104,2.312,7.519-5.73,4.96-9.94c-2.558-4.21-11.467-9.565-11.467-9.565
								S1041.088,1520.481,1037.366,1516.942z"/>
							<g>
								<g>
									<g>
										<path style="fill:#FAA189;" d="M1039.767,1531.977c0,0,50.437,18.125,60.426,23.571
											c11.295,6.158,20.092-2.905,10.631-6.741c-9.461-3.836-63.058-27.958-65.57-28.858
											C1042.741,1519.049,1032.7,1526.127,1039.767,1531.977z"/>
									</g>
									<g>
										<path style="fill:#FAA189;" d="M1037.43,1527.205c0,0,54.85,16.475,64.606,23.224c6.211,4.296,16.923,1.272,7.965-5.102
											c-4.77-3.395-38.236-21.518-56.02-31.661c-13.805-7.874-32.181-7.662-33.646-8.195
											C1020.336,1505.47,1029.845,1521.708,1037.43,1527.205z"/>
									</g>
									<g>
										<path style="fill:#FAA189;" d="M1009.113,1515.567c0.307-11.582,9.611-11.502,21.405-8.203s60.699,31.224,68.409,33.573
											c7.71,2.349-3.348,10.928-10.007,8.579c-6.658-2.349-32.41-12.837-42.176-13.473
											C1036.98,1535.407,1008.777,1528.273,1009.113,1515.567z"/>
									</g>
								</g>
							</g>
						</g>
					</g>
					<path style="fill:#3560C1;" d="M817.758,1430.686c-8.594-26.579-32.789-132.878-38.967-167.356
						c-6.178-34.479,6.54-61.949,35.567-68.681c38.311-8.885,78.142,174.456,89.878,205.067
						C912.669,1421.709,826.352,1457.265,817.758,1430.686z"/>
					<path style="fill:#FAA189;" d="M793.8,1177.596c0,0,3.242,222.87-62.192,174.546c-45.458-33.571-75.982-142.504-69.573-177.328
						c6.409-34.823,45.915-34.306,78.781-28.257C773.682,1152.607,793.8,1177.596,793.8,1177.596z"/>
					<g>
						
							<rect x="699.153" y="1023.251" transform="matrix(0.9835 0.181 -0.181 0.9835 212.5621 -116.9096)" style="fill:#FAA189;" width="95.314" height="165.775"/>
						<path style="fill:#E37254;" d="M714.944,1015.994l-15.387,83.598c0,0,51.114,63.062,87.023,53.744l22.103-120.089
							L714.944,1015.994z"/>
						<path style="fill:#FAA189;" d="M834.006,1077.438c-10.384,35.006-53.008,62.023-63.25,58.985
							c-33.733-10.006-65.491-73.031-39.638-160.189c10.384-35.006,98.814-79.561,133.996-3.669
							C879.913,1004.488,844.39,1042.431,834.006,1077.438z"/>
						<path style="fill:#1A1A1A;" d="M773.073,1095.579c4.118,3.094,8.236,6.188,12.354,9.281c0.762,0.572,1.538-0.688,0.782-1.255
							c-4.118-3.094-8.236-6.188-12.354-9.281C773.094,1093.751,772.318,1095.011,773.073,1095.579L773.073,1095.579z"/>
						<path style="fill:#1A1A1A;" d="M813.522,1023.843c-0.463-1.301-0.597-2.611-0.651-3.924c-0.021-1.313,0.041-2.629,0.434-3.953
							c0.465,1.301,0.599,2.611,0.651,3.924C813.975,1021.203,813.913,1022.518,813.522,1023.843z"/>
						<path style="fill:#1A1A1A;" d="M812.447,1023.585c-0.495-1.555-0.883-3.017-1.397-4.463c-0.488-1.454-1.083-2.844-1.649-4.376
							c1.273,1.038,2.133,2.49,2.675,4.022C812.591,1020.311,812.807,1021.983,812.447,1023.585z"/>
						<path style="fill:#1A1A1A;" d="M811.352,1023.372c-1.094-1.918-2.148-3.749-3.267-5.589c-1.089-1.85-2.238-3.689-3.096-5.733
							c1.566,1.559,2.885,3.298,4.026,5.176C810.125,1019.11,811.065,1021.167,811.352,1023.372z"/>
						<path style="fill:#1A1A1A;" d="M812.696,1025.048c-7.112-4.668-14.547-8.504-22.235-12.146
							c-5.239-1.449-10.538-3.029-15.877-4.058c2.198-0.305,4.381-0.718,6.538-1.237c8.592,2.497,17.185,4.998,25.778,7.499
							L812.696,1025.048z"/>
						<path style="fill:#1A1A1A;" d="M828.689,1031.245c-0.072-1.12,0.252-2.226,0.718-3.241c0.52-0.988,1.198-1.921,2.13-2.546
							c-0.602,0.934-1.198,1.812-1.644,2.785C829.393,1029.19,829.06,1030.199,828.689,1031.245z"/>
						<path style="fill:#1A1A1A;" d="M829.388,1030.796c0.165-1.009,0.679-1.917,1.285-2.729c0.654-0.774,1.424-1.479,2.371-1.865
							c-0.679,0.751-1.365,1.424-1.946,2.203C830.469,1029.145,829.967,1029.965,829.388,1030.796z"/>
						<path style="fill:#1A1A1A;" d="M828.75,1031.429c0.614-0.473,1.781-1.371,1.781-1.371c1.442-1.11,2.883-2.22,4.325-3.329
							c4.77,1.415,10.359,3.541,15.697,5.448c-6.32-1.269-12.836-1.559-19.242-0.84c0,0-1.429,0.16-2.862,0.324
							C828.512,1031.612,828.618,1031.53,828.75,1031.429z"/>
						<g>
							<path style="fill:#F8DDD1;" d="M894.572,1129.423c0,0-0.468,0.088-1.314,0.248c-0.429,0.07-0.956,0.114-1.583,0.183
								c-0.311,0.021-0.645,0.027-1.003,0.041c-0.359,0.017-0.74,0.022-1.137-0.001c-1.601-0.038-3.542-0.269-5.655-0.849
								c-2.113-0.576-4.394-1.495-6.656-2.781c-2.261-1.279-4.518-2.938-6.538-4.912c-2.021-1.942-3.836-4.148-5.365-6.429
								c-3.09-4.57-5.051-9.347-6.119-13.182c-0.268-0.964-0.544-2.103-0.789-3.402c-0.122-0.649-0.252-1.337-0.389-2.059
								c-0.135-0.722-0.272-1.478-0.368-2.275c-0.104-0.794-0.212-1.619-0.325-2.473c-0.053-0.427-0.107-0.86-0.161-1.301
								c-0.038-0.442-0.076-0.891-0.115-1.347c-0.073-0.909-0.149-1.844-0.226-2.8c-0.075-0.955-0.088-1.938-0.132-2.935
								c-0.173-3.986-0.052-8.269,0.267-12.594c0.097-1.079,0.194-2.164,0.292-3.251c0.111-1.084,0.271-2.167,0.406-3.246
								l0.213-1.616c0.09-0.536,0.179-1.071,0.268-1.604c0.184-1.063,0.367-2.122,0.549-3.174c1.64-8.385,4.108-15.984,6.306-21.363
								c1.123-2.685,2.063-4.858,2.806-6.332c0.715-1.479,1.116-2.309,1.116-2.309s-0.207,0.898-0.575,2.498
								c-0.395,1.587-0.834,3.906-1.341,6.712c-0.97,5.629-1.735,13.339-1.668,21.409c0.029,1.008,0.058,2.023,0.088,3.042
								l0.048,1.525l0.101,1.528c0.073,1.018,0.118,2.034,0.21,3.046c0.101,1.01,0.203,2.017,0.303,3.02
								c0.459,3.998,1.045,7.875,1.798,11.428c0.189,0.888,0.339,1.763,0.543,2.608c0.2,0.844,0.396,1.669,0.586,2.472
								c0.093,0.401,0.184,0.796,0.275,1.185c0.104,0.386,0.206,0.766,0.307,1.14c0.198,0.747,0.388,1.469,0.572,2.163
								c0.774,2.751,1.423,5.06,1.898,6.75c0.931,3.342,1.822,7.468,3.246,11.542c0.702,2.045,1.544,4.075,2.56,6.003
								c0.987,1.92,2.19,3.717,3.534,5.332c1.339,1.614,2.811,3.029,4.294,4.171c1.482,1.146,2.974,2.011,4.3,2.627
								c0.329,0.168,0.65,0.304,0.959,0.423c0.308,0.122,0.601,0.247,0.878,0.35c0.559,0.178,1.048,0.354,1.455,0.465
								C894.116,1129.308,894.572,1129.423,894.572,1129.423z"/>
							<path style="fill:#F8DDD1;" d="M829.286,1142.552c0,0-0.483-0.398-1.358-1.12c-0.772-0.817-1.997-2.05-2.932-3.987
								c-0.975-1.905-1.739-4.418-2.079-7.264c-0.347-2.846-0.284-5.991,0.035-9.229c0.158-1.621,0.389-3.261,0.663-4.906
								c0.283-1.598,0.57-3.219,0.858-4.849c0.589-3.226,1.214-6.484,1.867-9.655c1.307-6.342,2.726-12.341,4.186-17.062
								c5.84-18.883,35.152-91.07,35.152-91.07s-16.562,76.131-22.402,95.013c-1.46,4.721-3.676,10.473-6.178,16.446
								c-1.251,2.986-2.574,6.028-3.909,9.023c-0.667,1.481-1.33,2.953-1.983,4.404c-0.633,1.411-1.228,2.8-1.754,4.164
								c-1.055,2.725-1.884,5.357-2.313,7.793c-0.432,2.432-0.463,4.665-0.166,6.526c0.254,1.884,0.951,3.297,1.411,4.302
								C828.964,1142.03,829.286,1142.552,829.286,1142.552z"/>
							<path style="fill:#F8DDD1;" d="M644.407,1032.09c3.855-3.458,7.456-7.192,10.753-11.103
								c16.338-19.38,26.724-42.929,38.215-65.523c11.49-22.595,24.83-45.171,45.14-60.339
								c20.309-15.168,49.102-21.223,71.344-9.063c3.939,2.154,22.934,14.628,33.076,21.322
								c17.055-5.198,37.858,7.089,45.035,24.396c8.16,19.677,3.336,42.268-3.994,62.269c-7.33,20.001-17.162,39.553-18.987,60.776
								c-1.264,14.698-4.155,63.871-6.024,82.965c-32.305-7.317-26.801-22.39-24.946-39.179
								c1.668-15.099,9.088-28.841,14.888-42.881c7.67-18.566,12.692-38.685,10.773-58.68c-1.078-11.232-4.582-22.426-10.415-32.056
								c-1.451-1.767-2.275-2.772-2.275-2.772c-7.608-9.269-22.148-10.212-32.999-5.107c-10.85,5.105-18.706,14.874-25.509,24.749
								c-13.32,19.336-24.164,40.376-32.185,62.443c-5.337,14.686-9.677,30.277-19.808,42.174
								c-10.131,11.897-28.337,18.802-41.707,10.714l-105.066-43.029C609.924,1055.144,629.158,1045.769,644.407,1032.09z"/>
						</g>
					</g>
					<path style="fill:#1A192D;" d="M785.439,1458.704l0.217-2.639l2.022-1.711c14.696-12.437,25.093-32.789,29.274-57.309
						c3.093-18.144,2.96-37.185,2.83-55.599c-0.056-7.9-0.113-16.069,0.079-24.132c0.264-11.084,8.589-30.025,15.933-46.735
						c3.736-8.501,8.821-20.071,9.187-23.313c-1.253-5.96-3.054-11.736-5.398-17.346c-30.071,50.291-70.03,87.063-129.971,54.023
						c-39.504-20.964-56.625-70.9-67.176-116.589c-16.999,7.366-34.079,17.02-43.862,25.229c0.46,31.464,4.034,63,7.494,93.525
						c5.303,46.8,10.788,95.193,5.096,143.958l-0.077,0.654c0,0-48.52,145.684-72.676,218.216
						c39.901,25.214,85.928,43.116,133.434,51.861c0.006,0.001,0.007,0.001,0.013,0.002c31.311,5.763,63.037,7.614,94.378,5.512
						c3.56-40.395,7.183-89.282,10.692-136.622C779.719,1532.035,782.605,1493.1,785.439,1458.704z"/>
					<path style="fill:#3560C1;" d="M635.101,1618.229c24.573-112.343,48.832-196.322,45.211-317.75
						c-1.395-41.809,3.103-132.128,3.103-132.128c-0.793-2.74,6.972-21.515,7.537-24.583c-24.335,2.619-81.429,29.937-98.797,45.957
						c0.685,81.124,0.616,165.22-2.44,224.496c-3.056,59.276-34.253,163.307-58.93,237.408
						c28.529,18.592,59.619,33.161,92.079,43.487C623.893,1669.481,629.496,1643.855,635.101,1618.229z"/>
					<path style="fill:#3560C1;" d="M791.803,1459.229c17.584-14.88,27.517-38.078,31.444-61.109
						c4.528-26.552,2.357-53.724,2.999-80.652c0.421-17.66,26.567-63.825,25.077-71.069c-6.295-30.603-27.305-53.531-61.019-76.323
						l-5.661-6.214c-2.535,13.775-5.372,44.417-5.372,44.417c-0.755,46.92,1.828,78.582,1.821,100.194
						c-0.01,33.963-68.065,273.287-91.5,401.584c27.34,3.665,55.056,4.462,82.525,2.221
						C778.663,1639.318,785.247,1538.791,791.803,1459.229z"/>
					<path style="fill:#3056AD;" d="M592.501,1274.268c-0.071,52.068-0.793,101.291-2.786,139.953
						c-3.056,59.276-34.253,163.307-58.93,237.408c9.423,6.141,19.13,11.833,29.068,17.088
						c-21.442-19.78,38.57-242.454,49.04-245.865c10.47-3.41,48.908,93.561,48.908,93.561
						c13.277-62.28,23.053-121.829,22.857-194.099C652.152,1304.54,622.773,1288.512,592.501,1274.268z"/>
					<path style="fill:#3056AD;" d="M826.205,1347.214c-8.002,18.405-9.711,39.235-10.679,58.6
						c-3.452,34.519-35.93,48.295-65.679,45.081c-0.767,3.088-1.543,6.208-2.323,9.343c11.558,2.533,29.187,1.38,32.446,13.26
						c3.48,12.685-2.35,50.211-2.35,50.211c2.308,14.312-26.8-19.627-39.778-24.558c-7.149,28.783-14.476,58.506-21.379,87.476
						c0,0,49.869,5.108,54.879,17.131c0.549,33.095-5.064,95.063-19.626,109.625c6.809-0.185,13.612-0.55,20.4-1.104
						c6.546-72.959,13.131-173.486,19.686-253.049c17.584-14.88,27.517-38.078,31.444-61.109
						C826.11,1381.326,826.294,1364.284,826.205,1347.214z"/>
					<g>
						<path style="fill:#FAA189;" d="M605.249,1323.743c33.234,62.777,55.797,111.871,95.322,170.89
							c11.15,16.65,22.815,33.428,38.725,45.611c5.264,4.031,14.582,6.049,29.132,7.027c19.439,1.306,113.478-1.984,183.114,4.482
							l8.848-34.702c-61.95-17.825-111.81-22.641-173.761-40.462c-39.005-57.648-70.802-117.885-110.15-175.348L605.249,1323.743z"
							/>
						<g>
							<g>
								<path style="fill:#FAA189;" d="M935.089,1505.055c-26.351,1.601-45.127,21.262-41.772,31.796
									c3.355,10.534,26.303,20.136,51.823,5.188c9.556-5.597,33.154-16.904,35.818-19.743
									C980.959,1522.296,961.616,1503.443,935.089,1505.055z"/>
							</g>
							<g>
								<path style="fill:#FAA189;" d="M952.404,1513.776c0,0,36.794,0.832,42.826,1.853c6.032,1.021,36.524,24.822,44.368,30.419
									c7.844,5.597-2.318,14.262-12.874,7.029c-10.556-7.234-37.421-23.816-37.421-23.816s-25.867,2.082-32.475,2.567
									C950.22,1532.312,938.887,1516.964,952.404,1513.776z"/>
								<path style="fill:#FAA189;" d="M952.978,1522.335l36.57,14.273c0,0,23.725,19.976,30.227,26.221
									c6.502,6.245-3.808,13.295-12.249,6.216c-8.44-7.079-29.671-20.16-29.671-20.16s-37.579-11.276-41.736-11.405
									C931.963,1537.351,952.978,1522.335,952.978,1522.335z"/>
								<path style="fill:#FAA189;" d="M930.712,1527.365l33.509,7.959c0,0,24.157,19.451,30.795,25.552
									c6.638,6.101-3.515,13.375-12.109,6.483c-8.594-6.893-30.106-19.505-30.106-19.505s-32.142-6.698-36.3-6.736
									C912.342,1541.08,930.712,1527.365,930.712,1527.365z"/>
								<path style="fill:#FAA189;" d="M921.189,1534.753l29.234,6.944c0,0,21.076,16.97,26.867,22.293
									c5.791,5.323-3.067,11.669-10.565,5.656s-26.266-17.017-26.266-17.017s-28.042-5.844-31.67-5.877
									C905.163,1546.719,921.189,1534.753,921.189,1534.753z"/>
							</g>
						</g>
						<path style="fill:#3560C1;" d="M691.628,1512.207c-10.892-18.783-111.011-220.451-124.731-252.643
							c-13.719-32.192-2.637-58.802,28.966-72.879c31.603-14.077,175.903,244.76,189.7,270.167
							C799.36,1482.259,702.521,1530.99,691.628,1512.207z"/>
					</g>
					<g>
						<g>
							<g>
								<path style="fill:#808080;" d="M880.183,1036.616c0.022-0.078,5.638-14.518,6.005-25.865
									c0.335-10.364-0.823-25.85-8.248-40.768l6.195-3.083c8.106,16.286,9.348,33.075,8.963,44.292
									c-0.417,12.137-6.158,26.965-6.257,27.311L880.183,1036.616z"/>
							</g>
							<g>
								<path style="fill:#808080;" d="M724.558,986.986c0.03-0.076,7.464-16.465,14.013-25.739
									c5.981-8.471,16.242-20.127,31.159-27.552l-3.083-6.195c-16.286,8.106-27.399,20.752-33.854,29.933
									c-6.985,9.935-14.554,26.709-14.684,27.044L724.558,986.986z"/>
							</g>
							<g>
								<g>
									<path style="fill:#999999;" d="M889.591,978.459c-7.707-26.084-27.59-48.119-55.335-57.423
										c-27.849-9.339-57.111-3.668-79.012,12.636l8.024,6.95c5.165-3.615,10.788-6.606,16.745-8.858
										c8.017-3.031,16.405-4.675,24.93-4.887c8.82-0.219,17.579,1.107,26.033,3.942s16.241,7.057,23.146,12.55
										c6.673,5.309,12.374,11.677,16.943,18.929c3.34,5.301,5.991,10.976,7.924,16.869L889.591,978.459z"/>
								</g>
							</g>
						</g>
						<g>
							<g>
								<path style="fill:#1A1A1A;" d="M871.556,1060.22c-7.27,21.679-12.672,39.236-20.095,36.747
									c-7.423-2.489-2.43-20.365,4.84-42.044c7.27-21.679,14.064-38.951,21.487-36.462S878.826,1038.541,871.556,1060.22z"/>
							</g>
							<g>
								<g>
									<g>
										<path style="fill:#666666;" d="M868.396,1095.852l1.489,0.499c1.988,0.667,4.14-0.404,4.807-2.393l18.314-54.61
											c0.667-1.988-0.405-4.14-2.393-4.807l-1.489-0.5L868.396,1095.852z"/>
									</g>
									<g>
										
											<rect x="867.403" y="1029.73" transform="matrix(0.9481 0.3179 -0.3179 0.9481 383.6556 -222.8852)" style="fill:#CCCCCC;" width="14.527" height="68.414"/>
									</g>
								</g>
							</g>
						</g>
						<g>
							<g>
								<g>
									<path style="fill:#1A1A1A;" d="M752.571,1093.072c-0.002,0-0.003-0.001-0.005-0.002l-21.012-7.148
										c-0.118-0.039-0.236-0.078-0.353-0.117c-13.578-4.553-18.82-9.386-21.87-13.097c-6.969-8.478-8.202-21.147-2.997-30.809
										c0.3-0.557,0.99-0.765,1.551-0.465c0.557,0.3,0.765,0.994,0.465,1.551c-4.776,8.865-3.645,20.49,2.75,28.269
										c5.453,6.634,13.772,10.047,21.183,12.498l21.021,7.151c0.599,0.204,0.919,0.854,0.715,1.453
										C753.816,1092.952,753.168,1093.272,752.571,1093.072z"/>
								</g>
								<g>
									<path style="fill:#1A1A1A;" d="M760.372,1094.842c-1.142,3.404-6.61,4.64-12.213,2.761
										c-5.604-1.879-9.221-6.162-8.08-9.566c1.141-3.404,6.61-4.64,12.213-2.761
										C757.896,1087.156,761.514,1091.438,760.372,1094.842z"/>
								</g>
							</g>
							<g>
								<path style="fill:#1A1A1A;" d="M717.118,1011.291c-7.27,21.679-13.545,38.943-6.123,41.432
									c7.423,2.489,14.217-14.783,21.487-36.462c7.27-21.679,12.263-39.555,4.84-42.044
									C729.9,971.728,724.388,989.612,717.118,1011.291z"/>
							</g>
							<g>
								<g>
									<g>
										<path style="fill:#666666;" d="M698.157,1041.624l-1.489-0.5c-1.988-0.667-3.059-2.819-2.393-4.807l18.314-54.611
											c0.667-1.988,2.819-3.059,4.807-2.393l1.489,0.5L698.157,1041.624z"/>
									</g>
									<g>
										
											<rect x="705.133" y="978.175" transform="matrix(-0.9481 -0.3179 0.3179 -0.9481 1065.948 2198.7317)" style="fill:#CCCCCC;" width="14.527" height="68.414"/>
									</g>
								</g>
							</g>
						</g>
					</g>
				</g>
				<g>
					<path style="fill:#92B4F5;" d="M1316.644,1577.376h-296.382l91.829-231.809c2.787-7.035,9.653-11.759,17.092-11.759h270.385
						c6.645,0,10.971,6.542,8.482,12.826L1316.644,1577.376z"/>
					<path style="fill:#3560C1;" d="M855.065,1567.032h462.12l-0.542,10.344H844.18l0,0
						C844.479,1571.663,849.352,1567.032,855.065,1567.032z"/>
				</g>
			</g>
			<g style="clip-path:url(#SVGID_00000054979634658738724380000014985246864605674624_);">
				<g>
					<path style="fill:#B82F1C;" d="M1732.036,1382.464c18.578-50.617,23.016-106.937,18.738-161.123
						c-3.359-42.543-11.664-84.669-12.995-127.324c-1.331-42.654,4.949-87.066,28.23-122.832s66.404-60.771,108.427-53.337
						c33.103,5.856,66.172,32.209,69.707,64.418c9.94,18.378,7.652,46.434,7.854,68.024c0.809,86.453-11.907,175.305-54.669,250.446
						c-40.844,71.771-112.757,129.165-194.33,138.66C1715.115,1421.636,1724.683,1402.497,1732.036,1382.464z"/>
					<g>
						<path style="fill:#FAA189;" d="M1946.499,1432.802c13.4,29.652,68.629,110.087,81.598,119.659
							c4.291,3.167,11.814,4.658,23.53,5.238c15.653,0.775,89.028-3.212,145.126,0.999l5.95-25.183
							c-50.077-13.457-83.902-23.638-133.981-37.091c-25.778-45.987-38.448-76.718-65.762-138.052
							C2002.96,1358.374,1922.97,1380.735,1946.499,1432.802z"/>
						<g>
							<path style="fill:#FAA189;" d="M2204.003,1538.998c-2.314-1.838-24.958-0.255-27.641,3.702c0,0,4.561,14.335,5.997,22.386
								c1.436,8.051,22.289,16.404,28.52,19.217c4.636,2.093,7.538-6.883,4.383-11.166c-3.155-4.283-13.25-9.189-13.25-9.189
								S2208.344,1542.448,2204.003,1538.998z"/>
							<g>
								<g>
									<g>
										<path style="fill:#FAA189;" d="M2208.025,1554.938c0,0,55.982,14.663,67.247,19.564
											c12.738,5.541,21.331-5.048,10.788-8.268c-10.543-3.22-70.498-24.03-73.287-24.758
											C2209.986,1540.749,2199.864,1549.323,2208.025,1554.938z"/>
									</g>
									<g>
										<path style="fill:#FAA189;" d="M2205.054,1550.03c0,0,60.57,12.466,71.71,18.791c7.091,4.026,18.323-0.252,8.079-6.25
											c-5.456-3.194-43.185-19.481-63.283-28.687c-15.602-7.147-35.345-5.158-36.972-5.592
											C2184.588,1528.291,2196.37,1544.844,2205.054,1550.03z"/>
									</g>
									<g>
										<path style="fill:#FAA189;" d="M2173.484,1540.225c-0.78-12.486,9.235-13.291,22.236-10.873
											c13.001,2.418,68.274,27.769,76.791,29.557s-2.554,12.074-9.941,10.185s-36.087-10.702-46.652-10.451
											C2205.356,1558.894,2174.34,1553.923,2173.484,1540.225z"/>
									</g>
								</g>
							</g>
						</g>
					</g>
					<path style="fill:#3560C1;" d="M1965.349,1488.242c-14.284-28.15-52.838-142.961-66.511-180.567
						c-13.673-37.606-7.329-71.436,19.546-85.408c35.47-18.441,116.502,190.243,134.75,222.26
						C2066.246,1467.531,1979.634,1516.392,1965.349,1488.242z"/>
					<path style="fill:#FAA189;" d="M1891.23,1206.745c0,0,48.802,217.485-25.14,183.582
						c-51.368-23.553-103.548-123.93-104.404-159.328c-0.856-35.398,37.919-42.98,71.327-43.787
						C1866.422,1186.404,1891.23,1206.745,1891.23,1206.745z"/>
					<g>
						
							<rect x="1782.948" y="1063.534" transform="matrix(0.9997 -0.0242 0.0242 0.9997 -27.1739 44.58)" style="fill:#FAA189;" width="95.314" height="165.775"/>
						<path style="fill:#E37254;" d="M1780.959,1064.71l2.055,84.978c0,0,62.943,51.261,96.182,34.789l-2.951-122.071
							L1780.959,1064.71z"/>
						<path style="fill:#FAA189;" d="M1910.079,1100.476c-2.997,36.391-39.187,71.562-49.834,70.685
							c-35.067-2.888-79.056-58.076-71.594-148.68c2.997-36.391,80.432-98.106,130.406-31.024
							C1940.078,1019.673,1913.076,1064.086,1910.079,1100.476z"/>
						<path style="fill:#1A1A1A;" d="M1854.15,1130.708c4.664,2.185,9.328,4.37,13.992,6.556c0.863,0.404,1.364-0.988,0.509-1.389
							c-4.664-2.185-9.328-4.37-13.992-6.556C1853.796,1128.915,1853.295,1130.307,1854.15,1130.708L1854.15,1130.708z"/>
						<path style="fill:#1A1A1A;" d="M1879.056,1052.21c-0.719-1.179-1.119-2.434-1.44-3.707c-0.289-1.281-0.498-2.581-0.385-3.959
							c0.722,1.178,1.121,2.433,1.44,3.707C1878.959,1049.534,1879.167,1050.834,1879.056,1052.21z"/>
						<path style="fill:#1A1A1A;" d="M1877.951,1052.178c-0.803-1.421-1.482-2.773-2.281-4.082c-0.775-1.324-1.643-2.562-2.51-3.945
							c1.459,0.756,2.598,2,3.442,3.389C1877.421,1048.944,1877.975,1050.537,1877.951,1052.178z"/>
						<path style="fill:#1A1A1A;" d="M1876.836,1052.194c-1.464-1.653-2.87-3.23-4.342-4.802c-1.445-1.588-2.946-3.152-4.203-4.977
							c1.852,1.206,3.499,2.637,5.001,4.242C1874.762,1048.274,1876.103,1050.095,1876.836,1052.194z"/>
						<path style="fill:#1A1A1A;" d="M1878.494,1053.559c-7.917-3.113-15.979-5.346-24.251-7.336
							c-5.425-0.346-10.935-0.807-16.371-0.722c2.089-0.749,4.141-1.6,6.146-2.549c8.922,0.685,17.844,1.374,26.768,2.062
							L1878.494,1053.559z"/>
						<path style="fill:#1A1A1A;" d="M1895.417,1056.351c-0.3-1.081-0.209-2.23,0.039-3.319c0.307-1.074,0.779-2.126,1.564-2.928
							c-0.398,1.037-0.802,2.019-1.039,3.063C1895.686,1054.195,1895.566,1055.251,1895.417,1056.351z"/>
						<path style="fill:#1A1A1A;" d="M1896.01,1055.768c-0.045-1.021,0.272-2.015,0.699-2.934c0.482-0.891,1.091-1.739,1.939-2.311
							c-0.51,0.875-1.045,1.673-1.454,2.555C1896.729,1053.931,1896.406,1054.837,1896.01,1055.768z"/>
						<path style="fill:#1A1A1A;" d="M1895.514,1056.518c0.504-0.589,1.463-1.707,1.463-1.707c1.184-1.381,2.368-2.763,3.552-4.144
							c4.959,0.408,10.865,1.345,16.48,2.119c-6.446,0.052-12.883,1.102-19.007,3.118c0,0-1.366,0.449-2.735,0.903
							C1895.319,1056.746,1895.406,1056.645,1895.514,1056.518z"/>
					</g>
					<path style="fill:#1A192D;" d="M1940.598,1483.61l-0.327-2.627l1.629-2.088c11.839-15.182,17.848-37.232,16.921-62.088
						c-0.687-18.393-4.716-37.003-8.613-55.001c-1.672-7.721-3.401-15.705-4.863-23.637c-2.011-10.903,2.26-31.147,6.027-49.007
						c1.917-9.086,4.525-21.452,4.219-24.7c-2.447-5.577-5.392-10.862-8.836-15.874c-19.138,55.382-50.722,99.556-116.158,79.488
						c-42.959-12.432-69.941-57.805-89.623-100.366c-15.131,10.69-29.872,23.636-37.768,33.675
						c6.892,30.704,16.847,60.839,26.482,90.01c14.772,44.723,30.048,90.968,34.461,139.865l0.059,0.655
						c0,0-17.667,152.531-26.461,228.473c44.218,16.511,92.935,24.61,141.226,23.444c0.006,0,0.007,0,0.013,0
						c31.828-0.769,63.26-5.453,93.507-13.927c-4.785-40.268-11.248-88.861-17.505-135.917
						C1950.012,1556.559,1944.865,1517.858,1940.598,1483.61z"/>
					<path style="fill:#3560C1;" d="M1826.103,1670.535c1.052-114.994,7.605-202.161-20.8-320.275
						c-9.924-40.638-24.013-129.965-24.013-129.965c-1.337-2.519,2.419-22.487,2.344-25.605
						c-23.284,7.546-73.575,45.974-87.296,65.21c17.279,79.266,34.429,161.594,43.573,220.24
						c9.145,58.646-0.093,166.86-9.077,244.444c31.731,12.357,65.145,20.253,99.032,23.714
						C1825.626,1722.996,1825.863,1696.766,1826.103,1670.535z"/>
					<path style="fill:#3560C1;" d="M1946.934,1482.821c14.165-18.165,19.138-42.905,18.267-66.252
						c-1.004-26.917-8.692-53.069-13.576-79.558c-3.203-17.372,12.938-67.912,9.996-74.698
						c-12.427-28.666-37.686-46.806-75.353-62.214l-6.813-4.924c0.339,14.002,3.835,44.576,3.835,44.576
						c8.867,46.081,17.877,76.543,22.295,97.699c6.943,33.246-10.673,281.434-7.345,411.81c27.511-2.009,54.803-6.904,81.232-14.721
						C1970.942,1661.786,1956.806,1562.04,1946.934,1482.821z"/>
					<path style="fill:#3056AD;" d="M1713.986,1342.581c10.59,50.98,19.961,99.308,25.925,137.559
						c9.145,58.646-0.093,166.861-9.077,244.445c10.48,4.081,21.147,7.666,31.951,10.775c-25.037-14.971-8.806-151.279,0.744-156.76
						c4.298-2.467,18.785,24.412,34.14,24.412c24.064,0,29.808-36.782,29.808-36.782c0.245-63.679-2.378-123.968-17.365-194.667
						C1778.571,1360,1746.533,1350.326,1713.986,1342.581z"/>
					<path style="fill:#3056AD;" d="M1957.674,1366.135c-4.064,19.653-1.472,40.392,1.545,59.545
						c3.688,34.494-25.282,54.628-55.059,57.573c-0.119,3.18-0.239,6.392-0.361,9.62c11.832,0.113,28.852-4.625,34.474,6.336
						c6.003,11.704,7.979,49.628,7.979,49.628c5.189,13.536-30.251-13.725-43.963-15.894c-1.105,29.637-2.191,60.231-3.018,90
						c0,0,49.859-5.21,57.224,5.533c7.313,32.281,14.506,94.086,3.234,111.321c6.627-1.575,13.211-3.325,19.742-5.257
						c-8.53-72.754-22.665-172.5-32.538-251.719c14.165-18.165,19.138-42.905,18.267-66.252
						C1964.565,1399.545,1961.256,1382.826,1957.674,1366.135z"/>
					<g>
						<path style="fill:#FAA189;" d="M1740.84,1530.231c12.429,15.718,25.381,31.524,42.202,42.414
							c5.566,3.603,15.014,4.88,29.596,4.707c19.481-0.231,112.968-10.928,182.897-9.976l6.083-35.292
							c-63.163-12.883-113.247-13.751-176.411-26.629C1781.776,1451.063,1696.783,1474.514,1740.84,1530.231z"/>
						<g>
							<g>
								<path style="fill:#FAA189;" d="M1975.451,1522.122c-26.143,3.675-43.309,24.755-39.134,34.992
									c4.176,10.237,27.81,17.998,52.071,1.084c9.085-6.334,31.717-19.467,34.149-22.507
									C2022.537,1535.691,2001.768,1518.422,1975.451,1522.122z"/>
							</g>
							<g>
								<path style="fill:#FAA189;" d="M1993.399,1529.45c0,0,36.745-2.073,42.838-1.531s38.368,21.864,46.629,26.825
									c8.261,4.961-1.186,14.401-12.279,8.023s-39.183-20.79-39.183-20.79s-25.623,4.116-32.172,5.12
									C1992.684,1548.1,1980.176,1533.694,1993.399,1529.45z"/>
								<path style="fill:#FAA189;" d="M1994.646,1537.938l37.582,11.344c0,0,25.227,18.043,32.201,23.755
									c6.974,5.713-2.747,13.554-11.72,7.162c-8.973-6.391-31.169-17.757-31.169-17.757s-38.352-8.277-42.505-8.078
									C1974.882,1554.564,1994.646,1537.938,1994.646,1537.938z"/>
								<path style="fill:#FAA189;" d="M1972.847,1544.707l34.032,5.291c0,0,25.616,17.485,32.714,23.044
									c7.098,5.558-2.449,13.611-11.56,7.418c-9.111-6.193-31.55-17.069-31.55-17.069s-32.57-4.142-36.718-3.852
									C1955.616,1559.829,1972.847,1544.707,1972.847,1544.707z"/>
								<path style="fill:#FAA189;" d="M1963.937,1552.824l29.691,4.616c0,0,22.349,15.255,28.542,20.104
									c6.193,4.849-2.137,11.875-10.086,6.471c-7.948-5.403-27.526-14.892-27.526-14.892s-28.415-3.614-32.034-3.361
									C1948.904,1566.016,1963.937,1552.824,1963.937,1552.824z"/>
							</g>
						</g>
						<path style="fill:#3560C1;" d="M1740.075,1557.786c-7.161-20.497-62.065-215.185-69.479-249.384
							c-7.414-34.199,29.255-75.435,62.943-83.31c33.688-7.875,100.968,252.316,109.735,279.866
							S1747.237,1578.283,1740.075,1557.786z"/>
					</g>
					<path style="fill:#B82F1C;" d="M1783.105,1173.571c0,0,0.293-0.115,0.851-0.333c0.556-0.217,1.375-0.519,2.39-1.001
						c2.035-0.918,4.886-2.426,7.95-4.744c3.07-2.307,6.299-5.482,9.222-9.401c2.919-3.93,5.513-8.624,7.555-13.774
						c2.047-5.147,3.547-10.751,4.414-16.402c0.434-2.826,0.715-5.654,0.829-8.445c0.045-1.464,0.089-2.927,0.134-4.384
						c-0.013-1.479,0.029-2.918-0.003-4.384c-0.084-5.837-0.464-11.644-0.833-17.245c-0.373-5.602-0.722-10.981-0.817-15.919
						c-0.076-4.932-0.021-11.784,0.51-20.301c0.148-2.138,0.297-4.348,0.533-6.683c0.204-2.292,0.485-4.792,0.833-7.316
						c0.359-2.532,0.787-5.131,1.301-7.784c0.526-2.654,1.138-5.363,1.853-8.112c1.439-5.496,3.311-11.16,5.776-16.814
						c2.479-5.646,5.563-11.289,9.42-16.581c3.845-5.289,8.522-10.195,13.848-14.219c2.654-2.02,5.49-3.793,8.362-5.338
						c2.912-1.5,5.879-2.815,8.896-3.84c6.035-2.051,12.13-3.117,17.934-3.434c1.453-0.114,2.887-0.102,4.305-0.14
						c0.706,0.011,1.41,0.022,2.11,0.033c0.7,0.007,1.393,0.028,2.081,0.073c0.687,0.037,1.37,0.075,2.051,0.112
						c0.676,0.058,1.348,0.117,2.017,0.174c1.338,0.1,2.645,0.29,3.94,0.438c10.327,1.412,32.906,12.613,25.384,11.692
						c-7.506-0.903-16.407-1.608-25.78-0.986c-4.67,0.35-9.457,0.983-14.085,2.227c-4.64,1.196-9.108,2.977-13.163,5.317
						c-2.03,1.17-3.929,2.524-5.746,3.95c-1.793,1.483-3.456,3.038-4.972,4.743c-3.039,3.395-5.536,7.247-7.512,11.393
						c-1.979,4.145-3.462,8.555-4.562,13.024c-1.089,4.479-1.797,9.015-2.229,13.456c-0.212,2.223-0.361,4.42-0.459,6.578
						c-0.087,2.162-0.124,4.282-0.124,6.35c0.01,2.077,0.056,4.059,0.138,6.107c0.054,2.004,0.166,3.992,0.252,5.89
						c0.399,7.632,0.86,14.355,0.94,19.36c0.094,4.999-0.073,10.776-0.637,17.084c-0.569,6.306-1.551,13.171-3.213,20.205
						c-0.403,1.754-0.91,3.53-1.377,5.291c-0.511,1.767-1.092,3.537-1.649,5.293c-1.222,3.645-2.697,7.182-4.365,10.559
						c-3.338,6.756-7.481,12.897-12.086,18.115c-4.6,5.221-9.669,9.501-14.677,12.632c-5.021,3.13-9.921,5.117-14.093,6.188
						c-4.179,1.084-7.583,1.344-9.892,1.38c-1.153,0.039-2.046-0.017-2.646-0.043
						C1783.418,1173.586,1783.105,1173.571,1783.105,1173.571z"/>
					<path style="fill:#B82F1C;" d="M1930.627,975.906c0,0-37.054-5.38-49.522-0.577c-12.468,4.803-58.256,55.522-57.552,90.744
						c0.704,35.222-38.039,76.079-50.015,78.192c0,0,4.227-117.64,9.158-153.566
						C1787.628,954.773,1882.022,944.206,1930.627,975.906z"/>
					<path style="fill:#B82F1C;" d="M1865.808,1209.411c0,0,2.544-4.005,6.679-10.514c4.129-6.509,9.858-15.512,15.981-25.609
						c3.075-5.041,6.198-10.383,9.315-15.794c3.057-5.444,6.14-10.942,8.948-16.397c2.872-5.425,5.471-10.8,7.9-15.842
						c1.175-2.535,2.313-4.989,3.401-7.338c1.029-2.37,2.04-4.62,3.001-6.735c0.456-1.067,0.954-2.231,1.491-3.485
						c0.272-0.626,0.555-1.274,0.846-1.944c0.296-0.669,0.6-1.359,0.877-2.08c1.141-2.875,2.499-6.058,3.739-9.603
						c2.58-7.052,5.241-15.371,7.32-24.563c2.06-9.188,3.587-19.243,3.975-29.579c0.408-10.329-0.307-20.928-2.303-31.028
						c-0.26-1.261-0.52-2.518-0.778-3.769l-0.193-0.939c-0.072-0.31-0.164-0.615-0.245-0.922c-0.167-0.614-0.334-1.226-0.5-1.836
						c-0.332-1.224-0.663-2.441-0.991-3.652c-0.149-0.612-0.352-1.202-0.558-1.79c-0.202-0.59-0.403-1.177-0.603-1.763
						c-0.401-1.174-0.799-2.341-1.194-3.498c-0.188-0.588-0.411-1.143-0.631-1.698c-0.213-0.559-0.447-1.107-0.681-1.653
						c-0.934-2.184-1.969-4.289-3.081-6.298c-4.443-8.048-10.161-14.526-16.001-18.66c-1.456-1.038-2.915-1.938-4.359-2.676
						c-1.432-0.766-2.858-1.345-4.214-1.837c-2.728-0.943-5.226-1.367-7.287-1.505c-1.033-0.093-1.956-0.055-2.76-0.058
						c-0.8,0.054-1.484,0.093-2.033,0.153c-1.098,0.154-1.678,0.235-1.678,0.235s0.572-0.134,1.655-0.386
						c0.545-0.109,1.226-0.21,2.03-0.337c0.809-0.07,1.743-0.192,2.801-0.192c2.111-0.047,4.715,0.156,7.635,0.885
						c1.451,0.384,2.993,0.858,4.558,1.526c1.578,0.639,3.188,1.448,4.81,2.402c6.507,3.804,13.105,10.081,18.528,18.197
						c1.358,2.029,2.647,4.171,3.841,6.423c0.299,0.563,0.599,1.129,0.878,1.709c0.287,0.577,0.577,1.158,0.821,1.744
						c0.513,1.173,1.03,2.355,1.55,3.545c0.26,0.596,0.521,1.195,0.783,1.795c0.266,0.599,0.53,1.202,0.739,1.826
						c0.449,1.24,0.9,2.486,1.354,3.74c0.227,0.628,0.454,1.258,0.682,1.889c0.111,0.317,0.234,0.63,0.336,0.95l0.284,0.967
						c0.379,1.294,0.759,2.593,1.141,3.897c2.963,10.466,4.607,21.636,4.997,32.628c0.412,10.999-0.444,21.801-1.992,31.717
						c-1.566,9.92-3.871,18.946-6.259,26.595c-1.145,3.845-2.446,7.297-3.572,10.405c-0.274,0.781-0.575,1.521-0.869,2.236
						c-0.293,0.716-0.577,1.409-0.85,2.078c-0.556,1.335-1.071,2.573-1.544,3.707c-1.014,2.235-2.13,4.588-3.311,7.043
						c-1.25,2.417-2.559,4.941-3.97,7.51c-2.88,5.104-6.073,10.447-9.599,15.721c-3.469,5.315-7.271,10.554-11.071,15.672
						c-3.854,5.078-7.736,10.016-11.542,14.613c-7.589,9.213-14.693,17.206-19.848,22.95c-2.59,2.859-4.682,5.168-6.126,6.762
						C1866.609,1208.535,1865.808,1209.411,1865.808,1209.411z"/>
					<path style="fill:#F36C59;" d="M1717.802,1376.294c0,0,0.26-0.495,0.756-1.439c0.49-0.946,1.253-2.321,2.104-4.16
						c1.77-3.641,4.138-9.017,6.523-15.872c2.391-6.851,4.839-15.159,7.002-24.539c1.075-4.692,2.085-9.648,3.018-14.813
						c0.904-5.171,1.752-10.546,2.473-16.08c0.71-5.535,1.324-11.223,1.819-17.008c0.477-5.787,0.832-11.671,1.051-17.593
						c0.445-11.842,0.283-23.85-0.636-35.49c-0.121-1.454-0.229-2.905-0.39-4.344c-0.151-1.44-0.283-2.878-0.475-4.3
						c-0.338-2.833-0.753-5.71-1.133-8.534c-0.764-5.659-1.512-11.199-2.237-16.568c-1.431-10.744-2.717-20.817-3.777-29.806
						c-1.051-8.99-2.419-21.282-3.765-35.939c-0.656-7.331-1.332-15.25-1.89-23.648c-0.582-8.396-1.068-17.269-1.362-26.499
						c-0.842-18.53,0.936-38.723,6.234-58.41c1.315-4.924,2.837-9.818,4.571-14.648c1.74-4.828,3.71-9.583,5.883-14.236
						c4.349-9.303,9.55-18.198,15.593-26.302c6.039-8.103,12.788-15.501,20.241-21.74c7.453-6.218,15.494-11.28,23.659-15.125
						c4.079-1.93,8.169-3.607,12.236-5.004c4.071-1.384,8.103-2.521,12.052-3.452c3.959-0.89,7.83-1.573,11.582-2.07
						c0.938-0.12,1.872-0.21,2.794-0.314c0.461-0.05,0.92-0.101,1.377-0.151c0.458-0.035,0.914-0.071,1.367-0.106
						c0.907-0.068,1.804-0.136,2.692-0.203c0.89-0.037,1.77-0.074,2.64-0.11c6.963-0.278,13.305,0.143,18.838,0.849
						c5.536,0.714,10.268,1.726,14.096,2.731c3.821,1.035,6.756,2.003,8.73,2.715c1.967,0.731,3.008,1.117,3.008,1.117
						s-1.048-0.366-3.028-1.058c-1.986-0.673-4.937-1.583-8.769-2.541c-3.838-0.928-8.575-1.846-14.098-2.451
						c-5.52-0.598-11.832-0.895-18.738-0.489c-0.863,0.052-1.735,0.105-2.617,0.158c-0.88,0.083-1.768,0.167-2.667,0.251
						c-0.449,0.043-0.9,0.087-1.353,0.13c-0.452,0.058-0.906,0.117-1.362,0.175c-0.912,0.121-1.835,0.227-2.763,0.363
						c-3.709,0.563-7.528,1.311-11.427,2.263c-3.889,0.993-7.852,2.191-11.844,3.631c-3.989,1.453-7.99,3.181-11.971,5.155
						c-7.97,3.932-15.774,9.05-22.958,15.266c-7.171,6.221-13.684,13.618-19.457,21.655c-5.784,8.046-10.729,16.849-14.835,26.035
						c-2.052,4.595-3.903,9.285-5.529,14.041c-1.62,4.759-3.031,9.577-4.241,14.419c-2.433,9.682-4.009,19.468-4.845,29.086
						c-0.426,4.809-0.66,9.579-0.702,14.279c-0.052,4.708,0.078,9.305,0.327,13.901c0.422,9.156,1.025,17.967,1.71,26.31
						c0.661,8.344,1.426,16.219,2.155,23.512c1.492,14.583,2.943,26.83,3.991,35.799c1.064,8.971,2.258,19.038,3.533,29.791
						c0.636,5.379,1.293,10.929,1.963,16.598c0.329,2.841,0.682,5.682,0.974,8.631c0.167,1.464,0.271,2.937,0.394,4.414
						c0.133,1.476,0.212,2.959,0.302,4.446c0.673,11.892,0.524,24.053-0.254,36.007c-0.386,5.978-0.914,11.906-1.568,17.727
						c-0.671,5.82-1.465,11.534-2.354,17.087c-0.899,5.552-1.927,10.938-3.007,16.111c-1.109,5.169-2.292,10.122-3.533,14.803
						c-2.496,9.361-5.251,17.625-7.9,24.416c-2.643,6.796-5.217,12.098-7.127,15.677c-0.921,1.808-1.738,3.155-2.264,4.082
						C1718.081,1375.81,1717.802,1376.294,1717.802,1376.294z"/>
					<g>
						<g>
							<g>
								<path style="fill:#808080;" d="M1946.92,1051.066c0.005-0.081,2.547-15.365,0.583-26.547
									c-1.794-10.213-6.098-25.134-16.42-38.215l5.432-4.287c11.269,14.281,15.922,30.461,17.841,41.519
									c2.077,11.966-0.507,27.654-0.533,28.013L1946.92,1051.066z"/>
							</g>
							<g>
								<path style="fill:#808080;" d="M1784.43,1034.349c0.014-0.08,3.935-17.644,8.446-28.063
									c4.12-9.516,11.777-23.026,24.859-33.348l-4.287-5.432c-14.281,11.268-22.57,25.922-27.009,36.23
									c-4.803,11.154-8.777,29.122-8.836,29.477L1784.43,1034.349z"/>
							</g>
							<g>
								<g>
									<path style="fill:#999999;" d="M1944.222,992.214c-12.884-23.954-36.856-41.451-65.919-44.878
										c-29.171-3.44-56.652,8.102-74.751,28.545l9.277,5.16c4.315-4.596,9.207-8.674,14.577-12.099
										c7.227-4.608,15.1-7.935,23.401-9.888c8.589-2.021,17.433-2.516,26.288-1.472c8.855,1.044,17.342,3.583,25.225,7.546
										c7.619,3.83,14.502,8.897,20.459,15.06c4.354,4.505,8.111,9.517,11.21,14.89L1944.222,992.214z"/>
								</g>
							</g>
						</g>
						<g>
							<g>
								<path style="fill:#1A1A1A;" d="M1943.308,1075.936c-2.677,22.708-4.371,40.999-12.146,40.083
									c-7.775-0.917-6.548-19.437-3.87-42.145c2.678-22.708,5.792-41.006,13.567-40.089
									C1948.634,1034.701,1945.986,1053.227,1943.308,1075.936z"/>
							</g>
							<g>
								<g>
									<g>
										<path style="fill:#666666;" d="M1947.51,1111.46l1.56,0.184c2.083,0.246,3.97-1.244,4.215-3.326l6.745-57.203
											c0.246-2.083-1.244-3.97-3.326-4.215l-1.56-0.184L1947.51,1111.46z"/>
									</g>
									<g>
										
											<rect x="1939.85" y="1044.73" transform="matrix(0.9931 0.1171 -0.1171 0.9931 139.7442 -220.5907)" style="fill:#CCCCCC;" width="14.527" height="68.414"/>
									</g>
								</g>
							</g>
						</g>
						<g>
							<g>
								<g>
									<path style="fill:#1A1A1A;" d="M1833.569,1132.452c-0.002,0-0.003,0-0.005,0l-22.031-2.694
										c-0.123-0.014-0.247-0.028-0.369-0.043c-14.223-1.677-20.343-5.334-24.089-8.342c-8.557-6.872-12.358-19.02-9.241-29.543
										c0.18-0.606,0.813-0.951,1.423-0.773c0.606,0.18,0.952,0.817,0.773,1.423c-2.859,9.655,0.627,20.802,8.479,27.107
										c6.696,5.377,15.537,7.015,23.293,7.897l22.04,2.695c0.628,0.077,1.074,0.648,0.998,1.276
										C1834.763,1132.08,1834.195,1132.526,1833.569,1132.452z"/>
								</g>
								<g>
									<path style="fill:#1A1A1A;" d="M1841.568,1132.588c-0.42,3.565-5.52,5.895-11.39,5.203s-10.287-4.144-9.867-7.709
										c0.42-3.565,5.52-5.895,11.389-5.203C1837.57,1125.571,1841.988,1129.022,1841.568,1132.588z"/>
								</g>
							</g>
							<g>
								<path style="fill:#1A1A1A;" d="M1782.124,1059.661c-2.678,22.708-5.286,40.892,2.49,41.808
									c7.775,0.917,10.889-17.381,13.567-40.089c2.678-22.708,3.905-41.228-3.87-42.145
									C1786.535,1018.319,1784.802,1036.953,1782.124,1059.661z"/>
							</g>
							<g>
								<g>
									<g>
										<path style="fill:#666666;" d="M1769.775,1093.234l-1.56-0.184c-2.083-0.246-3.572-2.133-3.326-4.215l6.745-57.203
											c0.245-2.083,2.133-3.572,4.215-3.326l1.56,0.184L1769.775,1093.234z"/>
									</g>
									<g>
										
											<rect x="1770.462" y="1027.489" transform="matrix(-0.9931 -0.1171 0.1171 -0.9931 3418.8923 2324.2639)" style="fill:#CCCCCC;" width="14.527" height="68.414"/>
									</g>
								</g>
							</g>
						</g>
					</g>
				</g>
				<g>
					<path style="fill:#92B4F5;" d="M2434.729,1577.376h-296.382l91.83-231.809c2.787-7.035,9.653-11.759,17.092-11.759h270.385
						c6.645,0,10.971,6.542,8.482,12.826L2434.729,1577.376z"/>
					<path style="fill:#3560C1;" d="M1973.15,1567.032h462.12l-0.542,10.344h-472.464l0,0
						C1962.564,1571.663,1967.437,1567.032,1973.15,1567.032z"/>
				</g>
			</g>
			<g style="clip-path:url(#SVGID_00000054979634658738724380000014985246864605674624_);">
				<g>
					<path style="fill:#2C2E52;" d="M2805.215,960.894c0,0-45.313,7.67-58.119,88.937c-12.806,81.267-51.578,97.145-78.272,123.839
						c-26.695,26.694-96.16,97.908-43.79,157.888l208.774,2.25c0,0,49.656-154.315,68.105-223.161
						S2860.781,948.535,2805.215,960.894z"/>
					<g>
						<path style="fill:#FAA189;" d="M2884.816,1442.907c15.124,28.811,74.998,105.851,88.509,114.643
							c4.47,2.909,12.068,3.954,23.797,3.842c15.671-0.149,88.684-8.453,144.932-7.555l4.455-25.49
							c-50.783-10.482-85.149-18.652-135.934-29.131c-28.444-44.388-42.903-74.319-73.784-133.936
							C2936.792,1365.28,2858.259,1392.317,2884.816,1442.907z"/>
						<g>
							<path style="fill:#FAA189;" d="M3148.13,1533.742c-2.418-1.699-24.93,1.216-27.375,5.325c0,0,5.398,14.041,7.306,21.994
								c1.908,7.952,23.217,15.061,29.603,17.503c4.751,1.816,7.119-7.315,3.718-11.405c-3.402-4.09-13.768-8.393-13.768-8.393
								S3152.668,1536.929,3148.13,1533.742z"/>
							<g>
								<g>
									<g>
										<path style="fill:#FAA189;" d="M3153.086,1549.417c0,0,56.749,11.339,68.283,15.567
											c13.042,4.781,20.997-6.297,10.282-8.889c-10.715-2.593-71.792-19.834-74.618-20.396
											C3154.206,1535.137,3144.607,1544.293,3153.086,1549.417z"/>
									</g>
									<g>
										<path style="fill:#FAA189;" d="M3149.831,1544.692c0,0,61.199,8.875,72.693,14.532c7.316,3.601,18.277-1.332,7.696-6.716
											c-5.635-2.867-44.258-16.902-64.864-24.908c-15.996-6.215-35.587-3.066-37.237-3.403
											C3128.119,1524.198,3140.855,1540.028,3149.831,1544.692z"/>
									</g>
									<g>
										<path style="fill:#FAA189;" d="M3117.738,1536.766c-1.514-12.418,8.436-13.813,21.557-12.165
											c13.121,1.648,69.792,23.697,78.4,24.98c8.608,1.283-1.838,12.204-9.323,10.754c-7.485-1.45-36.655-8.557-47.186-7.684
											C3150.654,1553.524,3119.399,1550.389,3117.738,1536.766z"/>
									</g>
								</g>
							</g>
						</g>
					</g>
					<path style="fill:#3560C1;" d="M2905.651,1488.261c-14.284-28.15-52.838-142.961-66.511-180.567
						c-13.673-37.606-7.329-71.436,19.546-85.408c35.47-18.441,116.502,190.243,134.75,222.26
						C3006.547,1467.55,2919.935,1516.411,2905.651,1488.261z"/>
					<path style="fill:#FAA189;" d="M2831.531,1206.764c0,0,48.802,217.485-25.14,183.582
						c-51.368-23.553-103.548-123.93-104.404-159.328s37.919-42.98,71.327-43.787
						C2806.723,1186.423,2831.531,1206.764,2831.531,1206.764z"/>
					<path style="fill:#1A192D;" d="M2880.899,1483.63l-0.327-2.627l1.629-2.088c11.839-15.182,17.848-37.232,16.921-62.088
						c-0.687-18.393-4.716-37.003-8.613-55.001c-1.672-7.722-3.401-15.705-4.863-23.637c-2.011-10.903,2.26-31.147,6.027-49.007
						c1.917-9.086,4.525-21.451,4.219-24.7c-2.446-5.577-5.392-10.862-8.835-15.874c-19.138,55.382-50.722,99.556-116.158,79.488
						c-42.959-12.432-69.941-57.805-89.623-100.366c-15.131,10.69-29.872,23.636-37.768,33.675
						c6.892,30.704,16.847,60.839,26.482,90.01c14.772,44.723,30.048,90.968,34.461,139.865l0.059,0.655
						c0,0-17.667,152.532-26.461,228.473c44.218,16.51,92.935,24.61,141.226,23.444c0.006,0,0.007,0,0.013,0
						c31.828-0.77,63.261-5.453,93.508-13.927c-4.785-40.268-11.248-88.861-17.505-135.917
						C2890.314,1556.578,2885.167,1517.877,2880.899,1483.63z"/>
					<path style="fill:#3560C1;" d="M2766.405,1670.555c1.052-114.994,7.605-202.161-20.8-320.275
						c-9.925-40.638-24.013-129.965-24.013-129.965c-1.337-2.519,2.419-22.487,2.344-25.605
						c-23.284,7.545-73.575,45.974-87.296,65.21c17.279,79.266,34.429,161.594,43.573,220.24
						c9.145,58.646-0.094,166.861-9.077,244.444c31.731,12.357,65.145,20.253,99.032,23.714
						C2765.927,1723.015,2766.165,1696.785,2766.405,1670.555z"/>
					<path style="fill:#3560C1;" d="M2887.235,1482.84c14.165-18.165,19.138-42.905,18.267-66.252
						c-1.004-26.917-8.692-53.069-13.577-79.558c-3.203-17.372,12.938-67.912,9.996-74.698
						c-12.427-28.666-37.686-46.806-75.353-62.214l-6.813-4.924c0.339,14.002,3.835,44.576,3.835,44.576
						c8.867,46.081,17.877,76.543,22.295,97.699c6.943,33.246-10.673,281.434-7.345,411.81c27.511-2.01,54.803-6.904,81.231-14.721
						C2911.243,1661.806,2897.108,1562.059,2887.235,1482.84z"/>
					<path style="fill:#3056AD;" d="M2654.288,1342.6c10.59,50.98,19.961,99.308,25.925,137.559
						c9.145,58.646-0.093,166.861-9.077,244.444c10.48,4.081,21.147,7.666,31.951,10.775c-25.037-14.971-8.806-151.279,0.744-156.76
						c4.298-2.467,18.784,24.412,34.14,24.412c24.064,0,29.808-36.782,29.808-36.782c0.245-63.679-10.231-116.115-25.219-186.813
						C2711.02,1367.872,2686.834,1350.345,2654.288,1342.6z"/>
					<path style="fill:#3056AD;" d="M2897.975,1366.155c-4.064,19.653-1.472,40.392,1.545,59.545
						c3.688,34.494-25.282,54.628-55.059,57.573c-0.119,3.18-0.24,6.392-0.361,9.62c11.832,0.113,28.852-4.625,34.474,6.336
						c6.003,11.704,7.979,49.628,7.979,49.628c5.189,13.536-30.251-13.725-43.963-15.894c-1.105,29.637-2.191,60.231-3.018,90
						c0,0,49.859-5.21,57.224,5.533c7.313,32.281,14.505,94.086,3.234,111.321c6.627-1.575,13.211-3.326,19.742-5.257
						c-8.53-72.754-22.665-172.5-32.538-251.719c14.165-18.165,19.138-42.905,18.267-66.252
						C2904.867,1399.564,2901.558,1382.846,2897.975,1366.155z"/>
					<g>
						<path style="fill:#FAA189;" d="M2688.779,1538.024c14.212,14.127,28.954,28.278,46.952,37.088
							c5.955,2.915,15.488,3.058,29.946,1.15c19.315-2.549,110.864-24.3,180.408-31.68l1.838-35.765
							c-64.248-5.272-114.079-0.171-178.327-5.437C2719.998,1454.546,2638.401,1487.948,2688.779,1538.024z"/>
						<g>
							<g>
								<path style="fill:#FAA189;" d="M2932.828,1500.413c-26.397,0.401-46.047,19.187-43.175,29.863
									c2.873,10.676,25.361,21.311,51.534,7.54c9.801-5.157,33.888-15.379,36.679-18.094
									C2977.866,1519.723,2959.401,1500.009,2932.828,1500.413z"/>
							</g>
							<g>
								<path style="fill:#FAA189;" d="M2949.727,1509.912c0,0,36.718,2.505,42.697,3.799s35.357,26.458,42.938,32.406
									s-2.964,14.142-13.18,6.436c-10.216-7.706-36.299-25.493-36.299-25.493s-25.936,0.904-32.558,1.087
									C2946.703,1528.33,2936.08,1512.483,2949.727,1509.912z"/>
								<path style="fill:#FAA189;" d="M2949.912,1518.489l35.883,15.922c0,0,22.792,21.035,29.003,27.569
									c6.211,6.534-4.409,13.108-12.518,5.652c-8.11-7.456-28.723-21.489-28.723-21.489s-37.027-12.974-41.174-13.292
									S2949.912,1518.489,2949.912,1518.489z"/>
								<path style="fill:#FAA189;" d="M2927.441,1522.501l33.112,9.475c0,0,23.248,20.53,29.601,26.927
									c6.353,6.396-4.12,13.202-12.391,5.925c-8.271-7.276-29.188-20.854-29.188-20.854s-31.804-8.153-35.956-8.38
									C2908.466,1535.366,2927.441,1522.501,2927.441,1522.501z"/>
								<path style="fill:#FAA189;" d="M2917.592,1529.448l28.888,8.266c0,0,20.282,17.911,25.825,23.492
									c5.543,5.58-3.594,11.517-10.811,5.169c-7.216-6.348-25.464-18.194-25.464-18.194s-27.747-7.113-31.37-7.311
									S2917.592,1529.448,2917.592,1529.448z"/>
							</g>
						</g>
						<path style="fill:#3560C1;" d="M2680.377,1557.805c-7.161-20.497-62.065-215.185-69.479-249.384
							c-7.414-34.199,29.255-75.435,62.943-83.31s95.545,244.101,104.312,271.651
							C2786.919,1524.311,2687.538,1578.302,2680.377,1557.805z"/>
					</g>
					<g>
						<path style="fill:#2C2E52;" d="M2931.771,1046.042c1.457,6.768-15.092,88.792-41.213,122.815
							c-6.521,8.494-14.242,16.217-23.597,20.779c-9.354,4.562-22.002,2.682-31.367-1.855c14.961,1.119,27.512-15.733,42.451-39.238
							c10.621-16.711,19.768-62.142,22.753-78.493C2903.781,1053.698,2930.314,1039.274,2931.771,1046.042z"/>
						
							<rect x="2745.579" y="1063.466" transform="matrix(0.955 0.2966 -0.2966 0.955 465.7433 -776.9434)" style="fill:#FAA189;" width="95.314" height="165.775"/>
						<path style="fill:#E37254;" d="M2772.31,1053.061l-25.214,81.177c0,0,43.257,68.69,80.018,63.706l36.219-116.611
							L2772.31,1053.061z"/>
						<g>
							<path style="fill:#FAA189;" d="M2891.953,1123.709c-5.315,36.125-43.677,68.913-54.247,67.358
								c-34.811-5.122-75.186-63.006-61.953-152.949c5.315-36.125,86.533-92.769,132.121-22.633
								C2927.051,1044.986,2897.268,1087.584,2891.953,1123.709z"/>
							<path style="fill:#1A1A1A;" d="M2834.208,1150.307c4.515,2.479,9.03,4.957,13.545,7.436c0.835,0.458,1.424-0.899,0.596-1.353
								c-4.515-2.479-9.03-4.957-13.545-7.436C2833.969,1148.495,2833.38,1149.853,2834.208,1150.307L2834.208,1150.307z"/>
							<path style="fill:#1A1A1A;" d="M2864.076,1073.56c-0.643-1.222-0.961-2.5-1.201-3.792c-0.207-1.297-0.333-2.608-0.131-3.975
								c0.645,1.222,0.964,2.5,1.201,3.792C2864.15,1070.883,2864.275,1072.194,2864.076,1073.56z"/>
							<path style="fill:#1A1A1A;" d="M2862.975,1073.458c-0.711-1.469-1.302-2.862-2.016-4.219
								c-0.689-1.37-1.476-2.662-2.253-4.098c1.407,0.847,2.465,2.162,3.218,3.602
								C2862.653,1070.196,2863.104,1071.821,2862.975,1073.458z"/>
							<path style="fill:#1A1A1A;" d="M2861.861,1073.402c-1.355-1.743-2.658-3.407-4.026-5.069
								c-1.34-1.677-2.739-3.334-3.877-5.236c1.772,1.321,3.323,2.855,4.72,4.552
								C2860.042,1069.357,2861.264,1071.261,2861.861,1073.402z"/>
							<path style="fill:#1A1A1A;" d="M2863.429,1074.87c-7.702-3.612-15.605-6.355-23.733-8.87
								c-5.392-0.691-10.861-1.504-16.292-1.766c2.132-0.614,4.234-1.332,6.296-2.151c8.86,1.254,17.72,2.51,26.581,3.767
								L2863.429,1074.87z"/>
							<path style="fill:#1A1A1A;" d="M2880.139,1078.738c-0.23-1.098-0.066-2.239,0.251-3.31c0.375-1.052,0.913-2.072,1.748-2.822
								c-0.463,1.01-0.929,1.964-1.233,2.99C2880.545,1076.603,2880.358,1077.649,2880.139,1078.738z"/>
							<path style="fill:#1A1A1A;" d="M2880.768,1078.193c0.021-1.022,0.4-1.994,0.885-2.883c0.538-0.859,1.2-1.666,2.082-2.182
								c-0.565,0.84-1.15,1.603-1.615,2.456C2881.604,1076.406,2881.223,1077.289,2880.768,1078.193z"/>
							<path style="fill:#1A1A1A;" d="M2880.225,1078.91c0.541-0.555,1.569-1.61,1.569-1.61c1.27-1.303,2.539-2.606,3.809-3.909
								c4.923,0.724,10.757,2.036,16.311,3.167c-6.436-0.36-12.927,0.277-19.167,1.898c0,0-1.392,0.361-2.787,0.727
								C2880.016,1079.125,2880.11,1079.029,2880.225,1078.91z"/>
						</g>
					</g>
					<g>
						<path style="fill:#2C2E52;" d="M2875.838,951.623c-48.417-16.582-96.302,8.147-106.577,42.387
							c-10.275,34.24-16.501,54.988-16.501,54.988s6.873,2.384,13.972,2.375c7.329-16.366,12.812-33.801,12.812-33.801
							c-3.2,11.287,2.73,22.144,14.122,28.133c31.564,16.595,97.27-2.939,97.27-2.939s3.009,37.06,16.486,36.417
							c-0.522,5.117-11.613,33.561-11.613,33.561c12.417,5.634,19.283-8.836,19.283-8.836l16.979-56.581
							C2940.489,1019.278,2924.255,968.205,2875.838,951.623z"/>
						<path style="fill:#2C2E52;" d="M2782.858,975.899c-38.015,36.025-51.499,83.121-51.99,130.579
							c-0.122,11.848,1.336,24.115,6.396,35.359c5.06,11.244,28.091,33.64,39.411,38.027
							c-13.874-11.632-23.952-48.085-20.891-78.281c2.176-21.467,25.372-63.381,33.991-78.209
							C2798.393,1008.546,2782.858,975.899,2782.858,975.899z"/>
					</g>
					<g>
						<g>
							<g>
								<path style="fill:#808080;" d="M2928.447,1079.966c0.021-0.078,5.551-14.551,5.85-25.901
									c0.273-10.366-0.978-25.845-8.493-40.717l6.177-3.121c8.204,16.237,9.546,33.018,9.228,44.237
									c-0.344,12.14-5.997,27.001-6.093,27.348L2928.447,1079.966z"/>
							</g>
							<g>
								<path style="fill:#808080;" d="M2772.527,1031.271c0.029-0.076,7.365-16.509,13.858-25.823
									c5.93-8.507,16.121-20.224,30.994-27.739l-3.121-6.177c-16.237,8.203-27.274,20.916-33.674,30.136
									c-6.925,9.976-14.393,26.795-14.521,27.131L2772.527,1031.271z"/>
							</g>
							<g>
								<g>
									<path style="fill:#999999;" d="M2937.506,1021.754c-7.863-26.037-27.877-47.953-55.678-57.09
										c-27.905-9.172-57.132-3.325-78.935,13.11l8.065,6.902c5.143-3.646,10.748-6.67,16.692-8.958
										c7.999-3.079,16.376-4.774,24.9-5.037c8.819-0.272,17.586,1.001,26.056,3.785c8.471,2.784,16.283,6.96,23.22,12.411
										c6.705,5.268,12.444,11.603,17.056,18.827c3.372,5.281,6.056,10.94,8.025,16.821L2937.506,1021.754z"/>
								</g>
							</g>
						</g>
						<g>
							<g>
								<path style="fill:#1A1A1A;" d="M2919.962,1103.621c-7.14,21.722-12.437,39.311-19.874,36.867s-2.552-20.35,4.588-42.073
									s13.83-39.035,21.268-36.59C2933.382,1064.27,2927.102,1081.899,2919.962,1103.621z"/>
							</g>
							<g>
								<g>
									<g>
										<path style="fill:#666666;" d="M2917.015,1139.272l1.492,0.491c1.992,0.655,4.138-0.429,4.793-2.422l17.986-54.719
											c0.655-1.992-0.429-4.138-2.421-4.793l-1.492-0.49L2917.015,1139.272z"/>
									</g>
									<g>
										
											<rect x="2915.831" y="1073.113" transform="matrix(0.95 0.3123 -0.3123 0.95 491.9273 -857.3846)" style="fill:#CCCCCC;" width="14.527" height="68.414"/>
									</g>
								</g>
							</g>
						</g>
						<g>
							<g>
								<g>
									<path style="fill:#1A1A1A;" d="M2801.176,1137.187c-0.002-0.001-0.003-0.001-0.005-0.002l-21.055-7.021
										c-0.118-0.038-0.237-0.077-0.354-0.115c-13.605-4.472-18.875-9.273-21.948-12.966c-7.02-8.436-8.328-21.098-3.182-30.79
										c0.297-0.558,0.986-0.771,1.549-0.474c0.558,0.297,0.771,0.99,0.474,1.548c-4.722,8.894-3.522,20.511,2.919,28.252
										c5.493,6.601,13.832,9.964,21.258,12.371l21.063,7.024c0.6,0.2,0.924,0.849,0.724,1.448
										C2802.42,1137.059,2801.774,1137.384,2801.176,1137.187z"/>
								</g>
								<g>
									<path style="fill:#1A1A1A;" d="M2808.988,1138.91c-1.121,3.411-6.582,4.679-12.197,2.834
										c-5.615-1.846-9.258-6.107-8.137-9.517c1.121-3.411,6.582-4.679,12.197-2.834
										C2806.466,1131.238,2810.108,1135.499,2808.988,1138.91z"/>
								</g>
							</g>
							<g>
								<path style="fill:#1A1A1A;" d="M2765.233,1055.619c-7.14,21.722-13.312,39.024-5.874,41.469
									c7.437,2.445,14.128-14.868,21.268-36.59c7.14-21.722,12.026-39.628,4.588-42.073
									C2777.778,1015.98,2772.373,1033.897,2765.233,1055.619z"/>
							</g>
							<g>
								<g>
									<g>
										<path style="fill:#666666;" d="M2746.454,1086.066l-1.492-0.491c-1.992-0.655-3.076-2.801-2.421-4.793l17.986-54.719
											c0.655-1.992,2.801-3.076,4.793-2.421l1.492,0.49L2746.454,1086.066z"/>
									</g>
									<g>
										
											<rect x="2753.255" y="1022.532" transform="matrix(-0.95 -0.3123 0.3123 -0.95 5053.0317 2922.626)" style="fill:#CCCCCC;" width="14.527" height="68.414"/>
									</g>
								</g>
							</g>
						</g>
					</g>
				</g>
				<g>
					<path style="fill:#92B4F5;" d="M3375.03,1577.395h-296.382l91.829-231.809c2.787-7.035,9.653-11.759,17.092-11.759h270.385
						c6.645,0,10.971,6.542,8.482,12.826L3375.03,1577.395z"/>
					<path style="fill:#3560C1;" d="M2913.452,1567.052h462.12l-0.542,10.344h-472.464l0,0
						C2902.865,1571.682,2907.739,1567.052,2913.452,1567.052z"/>
				</g>
			</g>
		</g>
		<g>
			<path style="fill:#1A3160;" d="M3497.578,1616.558H381.596c-10.974,0-19.952-8.978-19.952-19.952l0,0
				c0-10.974,8.978-19.952,19.952-19.952h3115.981c10.974,0,19.952,8.978,19.952,19.952l0,0
				C3517.53,1607.58,3508.551,1616.558,3497.578,1616.558z"/>
			<path style="fill:#1A3160;" d="M3618.404,1652.508H502.422c-10.974,0-19.952-8.978-19.952-19.952v0
				c0-10.974,8.978-19.952,19.952-19.952h3115.981c10.974,0,19.952,8.978,19.952,19.952v0
				C3638.355,1643.529,3629.377,1652.508,3618.404,1652.508z"/>
			<path style="fill:#1A3160;" d="M2413.637,1682.737H430.107c-8.769,0-15.944-7.175-15.944-15.944v-8.015
				c0-8.769,7.175-15.944,15.944-15.944h1983.53c8.769,0,15.944,7.175,15.944,15.944v8.015
				C2429.581,1675.562,2422.406,1682.737,2413.637,1682.737z"/>
			<path style="fill:#1A3160;" d="M2938.878,1721.171H955.348c-8.769,0-15.944-7.175-15.944-15.944v-8.015
				c0-8.769,7.175-15.944,15.944-15.944h1983.53c8.769,0,15.944,7.175,15.944,15.944v8.015
				C2954.823,1713.996,2947.648,1721.171,2938.878,1721.171z"/>
			<path style="fill:#1A3160;" d="M2166.548,1749.399h-950.389c-6.092,0-11.076-4.984-11.076-11.076v-17.752
				c0-6.092,4.984-11.076,11.076-11.076h950.389c6.092,0,11.076,4.984,11.076,11.076v17.752
				C2177.624,1744.414,2172.64,1749.399,2166.548,1749.399z"/>
		</g>
	</g>
</g>
</svg>
